2.2Hzlow3min_grf.mot
version=1
nRows=17
nColumns 19
inDegrees=yes
endheader
time	1_ground_force_vx	1_ground_force_vy	1_ground_force_vz	1_ground_force_px	1_ground_force_py	1_ground_force_pz	1_ground_torque_x	1_ground_torque_y	1_ground_torque_z	2_ground_force_vx	2_ground_force_vy	2_ground_force_vz	2_ground_force_px	2_ground_force_py	2_ground_force_pz	2_ground_torque_x	2_ground_torque_y	2_ground_torque_z
            1.253500	          -15.644720	          136.875847	          -12.718708	           -0.164779	            0.006269	           -0.413128	            0.063825	           -0.558403	            0.051888	           -9.129855	          102.707399	            4.781607	           -0.134211	            0.005713	           -0.617530	           -0.029474	            0.331570	            0.015436
            1.254000	          -15.459795	          140.837795	          -11.785040	           -0.165794	            0.006269	           -0.413084	            0.080194	           -0.730564	            0.061132	           -7.261821	          104.371341	            4.833651	           -0.135843	            0.005705	           -0.616962	           -0.005500	            0.079052	            0.003661
            1.254500	          -15.641821	          142.817733	          -11.088243	           -0.163523	            0.006275	           -0.414478	            0.065153	           -0.594882	            0.046186	           -5.764577	          104.928857	            4.928841	           -0.134590	            0.005711	           -0.617418	           -0.008977	            0.163394	            0.007675
            1.255000	          -16.238650	          145.702459	          -11.211965	           -0.165196	            0.006268	           -0.412957	            0.038989	           -0.349832	            0.026920	           -4.692908	          106.589253	            5.168937	           -0.135967	            0.005712	           -0.619031	           -0.010662	            0.242165	            0.011744
            1.255500	          -16.057490	          146.607362	          -12.033961	           -0.164171	            0.006274	           -0.414279	            0.038988	           -0.355962	            0.029218	           -4.463208	          107.878293	            5.408077	           -0.136542	            0.005712	           -0.619597	           -0.021560	            0.521118	            0.026124
            1.256000	          -14.868115	          149.315116	          -12.850731	           -0.163465	            0.006276	           -0.414784	            0.057100	           -0.573431	            0.049352	           -4.648573	          107.324844	            5.500042	           -0.135017	            0.005710	           -0.617470	           -0.024200	            0.558713	            0.028632
            1.256500	          -12.255253	          153.460748	          -12.610159	           -0.164705	            0.006271	           -0.413575	            0.058921	           -0.737815	            0.060628	           -4.563492	          109.718935	            5.555472	           -0.135228	            0.005715	           -0.619082	           -0.021475	            0.516321	            0.026143
            1.257000	          -10.190841	          154.720057	          -11.922030	           -0.165173	            0.006273	           -0.414115	            0.065345	           -0.992088	            0.076446	           -4.234878	          109.535979	            5.554675	           -0.134862	            0.005709	           -0.617142	           -0.017237	            0.445845	            0.022609
            1.257500	           -8.674807	          157.057512	          -10.448346	           -0.165068	            0.006277	           -0.415037	            0.048740	           -0.882436	            0.058705	           -2.835363	          111.198381	            5.559991	           -0.135719	            0.005710	           -0.618081	           -0.006330	            0.248253	            0.012413
            1.258000	           -7.709869	          161.018431	           -9.241477	           -0.165471	            0.006277	           -0.415143	            0.022414	           -0.468110	            0.026867	           -1.572451	          111.755736	            5.467568	           -0.135516	            0.005704	           -0.616264	           -0.003429	            0.243732	            0.011924
            1.258500	           -7.616334	          163.357970	           -8.314538	           -0.165013	            0.006278	           -0.415132	            0.004628	           -0.099268	            0.005053	           -0.971419	          113.968049	            5.381338	           -0.136093	            0.005709	           -0.618328	           -0.002690	            0.315605	            0.014902
            1.259000	           -7.295663	          164.619892	           -8.309923	           -0.164893	            0.006276	           -0.414812	            0.005757	           -0.129910	            0.006558	           -0.697548	          115.994019	            5.576158	           -0.138313	            0.005701	           -0.618198	           -0.002710	            0.450715	            0.021667
            1.259500	           -6.382551	          167.690091	           -9.583024	           -0.164727	            0.006272	           -0.413922	            0.021226	           -0.557671	            0.031869	           -0.794407	          116.913091	            5.954908	           -0.137598	            0.005702	           -0.617809	           -0.002825	            0.415738	            0.021175
            1.260000	           -4.506166	          170.759492	          -10.629234	           -0.165238	            0.006274	           -0.414276	            0.026212	           -0.993295	            0.061829	           -1.411328	          119.119835	            6.197692	           -0.137933	            0.005703	           -0.618362	           -0.004925	            0.415703	            0.021629
            1.260500	           -2.488754	          172.741625	          -10.350603	           -0.165329	            0.006276	           -0.414834	            0.015683	           -1.088525	            0.065224	           -1.511797	          120.961984	            5.922734	           -0.136847	            0.005708	           -0.618844	           -0.004593	            0.367529	            0.017996
            1.261000	           -0.700251	          176.164855	           -9.835939	           -0.166629	            0.006269	           -0.413274	            0.003217	           -0.809349	            0.045189	           -1.375235	          122.067381	            5.926617	           -0.136330	            0.005708	           -0.618171	           -0.004478	            0.397510	            0.019300
            1.261500	            0.770036	          179.222970	           -8.267338	           -0.166173	            0.006272	           -0.413995	           -0.001055	           -0.245624	            0.011330	           -0.961747	          124.280190	            5.511969	           -0.137558	            0.005704	           -0.618363	           -0.002888	            0.373254	            0.016554
